<?xml version="1.0" encoding="utf-8"?>

<!DOCTYPE svg PUBLIC "-//W3C//DTD SVG 1.1//EN" "http://www.w3.org/Graphics/SVG/1.1/DTD/svg11.dtd">
<svg version="1.1" id="Layer_1" xmlns="http://www.w3.org/2000/svg" xmlns:xlink="http://www.w3.org/1999/xlink" x="0px" y="0px"
	 viewBox="0 0 1920 1860" enable-background="new 0 0 1920 1860" xml:space="preserve">
<g>
	<path fill="#E67817" stroke="#E67817" stroke-width="0.0938" d="M614.22,40.23c15.44-9.49,32.75-16.11,50.76-18.5
		c6.98-0.76,14.01-0.86,21.03-0.68c6.44-0.33,10.37,5.77,13.26,10.64c7.8,14.84,12.5,31.03,18.15,46.75
		c2.91,0.85,6.04,1.62,8.23,3.89c5.04,4.8,7.84,11.37,10.29,17.76c7.07,19.43,10.26,39.97,13.57,60.3
		c7.15,49.94,11.02,100.27,14.67,150.55c6.14,84.69,10.7,169.48,18.22,254.07c2.1,22.58,4.23,45.17,7.02,67.69
		c0.31,2.77,0.63,5.55,0.95,8.33c1.27,7.61,1.09,15.58,4.05,22.81c0.58,5.91-4.36,9.78-8.02,13.5699
		c-12.3,12.6801-25.19,24.78-38.51,36.3701c-15.63,11.66-29.87,25.0699-45.76,36.39c-11.09,8.92-22.11,17.96-33.59,26.39
		c-5.3,3.67-10.77,7.12-15.8,11.17c-6.4,5.16-13.94,8.59-20.56,13.43c-7.25,5.34-15.55,8.96-23.05,13.92
		c-7.64,5.02-16.16,8.45-24.05,13.03c-10.54,6.12-21.96,10.48-33.26,14.97c-2.12,0.97-4.41,0.2-6.62,0.36
		c-0.36,0.79-0.73,1.56-1.09,2.35c0.66-14.33,0.3-28.7,0.22-43.05c-0.03-1.65-0.04-3.28-0.02-4.91
		c-0.24-41.98-2.43-83.96-6.09-125.78c-3.91-44.02-9.86-87.91-18.9-131.18c-8.21-38.81-18.9-77.25-34.38-113.83
		c-12.4-28.76-27.85-56.63-49.17-79.8c-10.43-11.91-24.5-20.9-40.18-23.83c-18.77-3.52-38.19,0.86-55.21,8.96
		c-14.78,7.03-28.18,16.74-40.1,27.89c-0.9,1.04-2.6,1.99-2.07,3.62c2.43,10.61,10.88,18.15,16.27,27.21
		c-7.16-1.9-13.97-4.92-20.75-7.88c-5.92-2.59-11.47-5.98-16.43-10.13c-1.5,10.85,2.61,21.43,5.25,31.8
		c-12.83-6.78-22.85-17.55-33.14-27.52c-1.24,12.4,3.64,24.19,6.6,35.99c-5.1-1.03-9.6-3.71-13.97-6.41
		c-8.98-5.37-16.8-12.33-24.35-19.5c-1.39,7.99,1.09,15.88,3.54,23.4c1.75,5.39,4.33,10.44,6.48,15.67
		c-7.33-2.76-13.1-8.29-19.19-13.03c-7.61-6.06-14.25-13.16-21.02-20.11c-0.69,9.65,1.01,19.32-0.07,28.96
		c-2.67-1.49-5.35-3.05-7.45-5.31c-7.97-8.2-15.06-17.3-20.8-27.2c0.82,13.09,4.25,25.9,4.74,39.02c-2.84-0.8-5.76-1.7-7.9-3.85
		c-9.42-8.47-16.54-19.11-23.14-29.83c-3.3-5.56-6.57-11.21-8.65-17.36c-2.77-9.62-4.82-19.44-7.71-29.02
		c-7.03,11.29-7.49,25.12-12.68,37.16c-0.31,1.75-2.79,2.7-3.16,0.45c-13.57-33.61-15.73-71.01-9.84-106.55
		c4.5-28.09,13.38-55.33,24.64-81.4c1.32-3.11,3.02-6.11,3.68-9.46c-0.45-5.67-3.16-10.81-4.97-16.12
		c-5.12-13.72-10.45-28.71-6.74-43.45c0.44-3.66,4.67-3.82,7.54-4c16.58-0.48,32.88,3.15,49.29,4.88
		c61.81,4.2,123.74,7.01,185.71,6.55c17.35-0.07,34.73-0.19,52.03-1.64c9.76-0.99,19.63-1.51,29.15-4.06
		c4.29-1.2,6.98-5.05,9.65-8.33c9.95-13.56,17.83-28.54,28.15-41.84c6.38-7.91,13.51-16.6,23.91-18.96
		c9.32-1.65,18.91-0.97,28.2-2.92c9.76-1.65,19.14-4.87,28.7-7.36c17.6899-4.94,35.95-7.47,54.21-9.22
		C607.47,42.22,611.21,42.29,614.22,40.23 M614.69,91.69c-6.12,12.65-11.7,25.58-16.11,38.92c-14.07,41.4-17.58,86.41-9.61,129.42
		c0.97,3.9,2.51,10.17,7.65,9.71c3.09-3.67,2.52-8.84,4.08-13.14c1.53-1.57,2.92,0.65,4.09,1.59c4.91,5.12,7.19,13.56,14.96,15.17
		c-0.14-4.28,0.58-8.51,1.08-12.75c6.7,4.05,10.85,11.19,18,14.61c-0.11-3.86-0.38-7.71-0.63-11.56c8.5,1.35,14.26,8.59,22.5,10.7
		c0.07-4,0.11-7.99,0.27-11.98c4.55,1.85,8.63,4.67,13.21,6.41c7.12,1.99,14.67,3.4,22.05,2.01c-3.4-5.08-8.95-9.46-8.36-16.21
		c3.99,1.19,7.5,3.41,11.12,5.38c3.91,1.6,8.84,1.76,12.56-0.41c1.77-2.98,2.4-6.44,3.29-9.75
		c13.78-53.38,14.5-109.89,3.5099-163.83c2.97,38.62,2.83,77.69-3.35,116.01c-2.22,13.51-4.45,27.1-8.58,40.17
		c-0.83-4.36-1.34-8.79-2.51-13.08c-1.74-5.61-4.93-11.37-10.7-13.56c-0.47,10.93,3.82,21.29,4.34,32.14
		c-2.57-1.84-5.19-3.74-6.6-6.66c-4.7-7.34-6-16.26-10.84-23.5c-0.73,2.77-1.57,5.59-1.34,8.5c0.42,9.09,2.74,17.98,3.02,27.09
		c-5.29-6.52-9.16-14.07-11.85-21.99c-1.28-3.24-2.15-6.8-4.42-9.51c-1.88-1.58-2.34,1.56-2.96,2.79
		c-2.04,9.81,2.85,19.3,2.41,29.12c-9.06-5.6-9.62-17.11-13.25-26.08c-1.04,1.34-3.21,1.85-3.36,3.76
		c-1.3,8.03,0.83,16.21-0.72,24.24c-7.44-7.31-7.14-18.81-13.29-26.92c-5.13,7.29-3.63,16.41-4.3,24.76
		c-7.19-4.9-9.31-13.69-11.52-21.57c-1.32,0.53-3.11,0.53-3.77,2.01c-1.7,3.15-2.76,6.59-4.18,9.86
		c-4.98-6.26-7.61-13.96-9.52-21.62c-5.04-20.93-3.19-42.75,0.02-63.8c3.55-20.88,9.04-41.39,15.51-61.54
		c2.06-6.53,4.59-12.92,6.28-19.57C619.76,81.7,617.15,86.67,614.69,91.69 M486.36,110.35c-3.15,0.67-5.75,2.8-7.84,5.16
		c-5.37,6.26-7.49,15.02-5.96,23.09c0.89,4.05,3.42,8.17,7.57,9.47c4.6,1.31,9.33-1.22,12.32-4.62c5.44-6.26,8-15.11,6.32-23.27
		C497.92,114.38,492.62,108.71,486.36,110.35 M291.81,137.49c10.71,0.72,21.45,0.58,32.18,0.82c19.75-0.04,39.52,0.35,59.24-0.85
		C352.76,136.73,322.28,137.04,291.81,137.49 M143.67,156.66c-6.49,3.12-11,9.42-12.89,16.26c5.11-5.52,9.35-13.08,17.53-14.22
		c-1.36,7.88-5.49,15.14-5.44,23.29c-0.04,3.93,0.16,8.92,3.95,11.18c5.06,2.77,11.19,3.55,16.84,2.43
		c6.76-1.49,12.27-6.34,15.52-12.34c-5.91,3.2-11.55,7.41-18.35,8.49c-4.62,0.77-10,0.42-13.47-3.12c-2.35-2.13-2.73-5.56-2.24-8.53
		c1.32-9.03,7.91-16.19,9.27-25.23C150.78,155.05,146.98,155,143.67,156.66 M243.98,212.23c15.18,6.91,30.65,13.3,45.16,21.59
		c2.15,1.37,4.05,3.09,6,4.73c-8.79,2.21-17.57,4.51-26.14,7.49c-4.43,1.65-9.02,3.25-12.75,6.23c-0.33,2,2.17,2.23,3.44,3.06
		c13.54,5.57,27.35,12.72,36.09,24.9c7.29,9.82,10.43,22.02,11.86,34c0.53,3.99,0.04,8.01-0.72,11.93
		c-5.96-11.8-15.33-21.66-26.58-28.55c-2.29-1.3-4.86-1.98-7.36-2.75c5.56,13.42,14.36,25.36,18.95,39.23
		c1.22,3.86,1.47,7.94,1.73,11.96c4.92-2.78,9.6-5.94,14.4-8.91c13.24-7.81,27.19-14.49,41.8-19.3
		c15.46-4.84,31.42-7.84,47.37-10.53c3.16-0.45,6.09-1.76,9.1-2.73c-31.15-15.89-64.34-27.78-98.44-35.5
		c-1.93-0.59-3.82-1.33-5.71-2.02c13.24-7.54,28.75-1.49,42.99-3.15c-3.09-3.63-6.67-6.81-10.57-9.56
		c-9.22-7.05-19.22-13-29.41-18.53c-15.02-7.95-30.55-15-46.71-20.3C253.76,213.96,248.89,212.91,243.98,212.23 M112.38,237.36
		c-17.22,29.08-23.06,64.07-19.01,97.42c0.95,10.71,2.56,21.37,4.95,31.85c0.7,2.47,1.21,5.41,3.61,6.85
		c4.33-7.11,4.79-15.74,8.4-23.17c1.92-4.29,5.54-8.22,4.9-13.25c-2.74-34.19-0.75-68.93,7.53-102.26
		c1.74-7.04,4.22-13.87,6.03-20.89C122.08,220.78,117.32,229.21,112.38,237.36z"/>
	<path fill="#AF5726" stroke="#AF5726" stroke-width="0.0938" d="M614.69,91.69c2.46-5.02,5.07-9.99,8.18-14.66
		c-1.69,6.65-4.22,13.04-6.28,19.57c-6.47,20.15-11.96,40.66-15.51,61.54c-3.21,21.05-5.06,42.87-0.02,63.8
		c1.91,7.66,4.54,15.36,9.52,21.62c1.42-3.27,2.48-6.71,4.18-9.86c0.66-1.48,2.45-1.48,3.77-2.01c2.21,7.88,4.33,16.67,11.52,21.57
		c0.67-8.35-0.83-17.47,4.3-24.76c6.15,8.11,5.85,19.61,13.29,26.92c1.55-8.03-0.58-16.21,0.72-24.24c0.15-1.91,2.32-2.42,3.36-3.76
		c3.63,8.97,4.19,20.48,13.25,26.08c0.44-9.82-4.45-19.31-2.41-29.12c0.62-1.23,1.08-4.37,2.96-2.79c2.27,2.71,3.14,6.27,4.42,9.51
		c2.69,7.92,6.56,15.47,11.85,21.99c-0.28-9.11-2.6-18-3.02-27.09c-0.23-2.91,0.61-5.73,1.34-8.5c4.84,7.24,6.14,16.16,10.84,23.5
		c1.41,2.92,4.03,4.82,6.6,6.66c-0.52-10.85-4.81-21.21-4.34-32.14c5.77,2.19,8.96,7.95,10.7,13.56
		c1.17,4.29,1.6801,8.72,2.51,13.08c4.13-13.07,6.36-26.66,8.58-40.17c6.18-38.32,6.32-77.39,3.35-116.01
		c10.9901,53.94,10.27,110.45-3.5099,163.83c-0.89,3.31-1.52,6.77-3.29,9.75c-3.72,2.17-8.65,2.01-12.56,0.41
		c-3.62-1.97-7.13-4.19-11.12-5.38c-0.59,6.75,4.96,11.13,8.36,16.21c-7.38,1.39-14.93-0.02-22.05-2.01
		c-4.58-1.74-8.66-4.56-13.21-6.41c-0.16,3.99-0.2,7.98-0.27,11.98c-8.24-2.11-14-9.35-22.5-10.7c0.25,3.85,0.52,7.7,0.63,11.56
		c-7.15-3.42-11.3-10.56-18-14.61c-0.5,4.24-1.22,8.47-1.08,12.75c-7.77-1.61-10.05-10.05-14.96-15.17
		c-1.17-0.94-2.56-3.16-4.09-1.59c-1.56,4.3-0.99,9.47-4.08,13.14c-5.14,0.46-6.68-5.81-7.65-9.71
		c-7.97-43.01-4.46-88.02,9.61-129.42C602.99,117.27,608.57,104.34,614.69,91.69z"/>
	<path fill="#1F1917" stroke="#1F1917" stroke-width="0.0938" d="M486.36,110.35c6.26-1.64,11.56,4.03,12.41,9.83
		c1.68,8.16-0.88,17.01-6.32,23.27c-2.99,3.4-7.72,5.93-12.32,4.62c-4.15-1.3-6.68-5.42-7.57-9.47c-1.53-8.07,0.59-16.83,5.96-23.09
		C480.61,113.15,483.21,111.02,486.36,110.35 M484.49,117.32c-2.13,1.18-2.66,4.28-1.04,6.1c1.78,2.6,6.29,1.56,6.8-1.55
		C491.32,118.65,487.36,115.28,484.49,117.32z"/>
	<path fill="#FBFDFD" stroke="#FBFDFD" stroke-width="0.0938" d="M484.49,117.32c2.87-2.04,6.83,1.33,5.76,4.55
		c-0.51,3.11-5.02,4.15-6.8,1.55C481.83,121.6,482.36,118.5,484.49,117.32z"/>
	<path fill="#C57A35" stroke="#C57A35" stroke-width="0.0938" d="M291.81,137.49c30.47-0.45,60.95-0.76,91.42-0.03
		c-19.72,1.2-39.49,0.81-59.24,0.85C313.26,138.07,302.52,138.21,291.81,137.49z"/>
	<path fill="#B3561F" stroke="#B3561F" stroke-width="0.0938" d="M143.67,156.66c3.31-1.66,7.11-1.61,10.72-1.79
		c-1.36,9.04-7.95,16.2-9.27,25.23c-0.49,2.97-0.11,6.4,2.24,8.53c3.47,3.54,8.85,3.89,13.47,3.12c6.8-1.08,12.44-5.29,18.35-8.49
		c-3.25,6-8.76,10.85-15.52,12.34c-5.65,1.12-11.78,0.34-16.84-2.43c-3.79-2.26-3.99-7.25-3.95-11.18
		c-0.05-8.15,4.08-15.41,5.44-23.29c-8.18,1.14-12.42,8.7-17.53,14.22C132.67,166.08,137.18,159.78,143.67,156.66z"/>
	<path fill="#AF5727" stroke="#AF5727" stroke-width="0.0938" d="M243.98,212.23c4.91,0.68,9.78,1.73,14.5,3.29
		c16.16,5.3,31.69,12.35,46.71,20.3c10.19,5.53,20.19,11.48,29.41,18.53c3.9,2.75,7.48,5.93,10.57,9.56
		c-14.24,1.66-29.75-4.39-42.99,3.15c1.89,0.69,3.78,1.43,5.71,2.02c34.1,7.72,67.29,19.61,98.44,35.5
		c-3.01,0.97-5.94,2.28-9.1,2.73c-15.95,2.69-31.91,5.69-47.37,10.53c-14.61,4.81-28.56,11.49-41.8,19.3
		c-4.8,2.97-9.48,6.13-14.4,8.91c-0.26-4.02-0.51-8.1-1.73-11.96c-4.59-13.87-13.39-25.81-18.95-39.23c2.5,0.77,5.07,1.45,7.36,2.75
		c11.25,6.89,20.62,16.75,26.58,28.55c0.76-3.92,1.25-7.94,0.72-11.93c-1.43-11.98-4.57-24.18-11.86-34
		c-8.74-12.18-22.55-19.33-36.09-24.9c-1.27-0.83-3.77-1.06-3.44-3.06c3.73-2.98,8.32-4.58,12.75-6.23
		c8.57-2.98,17.35-5.28,26.14-7.49c-1.95-1.64-3.85-3.36-6-4.73C274.63,225.53,259.16,219.14,243.98,212.23z"/>
	<path fill="#AF5727" stroke="#AF5727" stroke-width="0.0938" d="M112.38,237.36c4.94-8.15,9.7-16.58,16.41-23.45
		c-1.81,7.02-4.29,13.85-6.03,20.89c-8.28,33.33-10.27,68.07-7.53,102.26c0.64,5.03-2.98,8.96-4.9,13.25
		c-3.61,7.43-4.07,16.06-8.4,23.17c-2.4-1.44-2.91-4.38-3.61-6.85c-2.39-10.48-4-21.14-4.95-31.85
		C89.32,301.43,95.16,266.44,112.38,237.36z"/>
	<path fill="#85C227" stroke="#85C227" stroke-width="0.0938" d="M789.42,632.7c10.15-4.05,20.39-9.37,31.57-9.33
		c4.01-0.33,6.64,3.18,8.32,6.33c-1.21,11.36-8.23,20.82-15.14,29.46c-17.01,20.57-36.96,38.4301-56.83,56.16
		c-22.86,19.92-46.35,39.11-70.28,57.72c-24.77,19.72-51.83,36.4-79.67,51.42c-23.56,12.41-47.68,24.23-73.36,31.61
		c-9.1201,2.58-18.85,4.31-28.24,2.07c-2.56-2.29-4.81-5.52-4-9.13c1.59-7.89,6.77-14.4,11.68-20.54
		c5.38-6.59,11.32-12.68,17.46-18.55c4.35-4.15,8.47-8.58,13.38-12.09c-0.02,1.63-0.01,3.26,0.02,4.91
		c-7.49,6.36-14.13,13.66-20.43,21.17c-4.1801,5.4-8.81,11.17-9.57,18.19c-0.53,3.7,2.6,6.7401,6.08,7.25
		c8.02,1.29,16.22-0.72,23.7-3.56c0.36-0.79,0.73-1.56,1.09-2.35c2.21-0.16,4.5,0.61,6.62-0.36c11.3-4.49,22.72-8.85,33.26-14.97
		c7.89-4.58,16.41-8.01,24.05-13.03c7.5-4.96,15.8-8.58,23.05-13.92c6.62-4.84,14.16-8.27,20.56-13.43
		c5.03-4.05,10.5-7.5,15.8-11.17c11.48-8.43,22.5-17.47,33.59-26.39c15.89-11.32,30.13-24.73,45.76-36.39
		c13.32-11.59,26.21-23.69,38.51-36.3701c3.66-3.79,8.6-7.66,8.02-13.5699c0.44,0.89,0.9,1.77,1.39,2.65
		c4.01-5.11,8.19-10.49,9.64-16.96c0.86-3.42-0.34-7.7401-3.88-9.08c-3.66-1.25-7.54-0.02-11.2,0.58
		C790.05,638.25,789.73,635.47,789.42,632.7z"/>
	<path fill="#00923F" stroke="#00923F" stroke-width="0.0938" d="M829.31,629.7c7.78,10.88,15.43,21.86,23.23,32.73
		c0.98,1.72,3.52,3.82,1.76,5.82c-8.15,12.85-17.03,25.24-26.74,36.96c-8.5,9.9-17.01,19.82-26.44,28.88
		c-15.47,15.99-32.61,30.24-50.01,44.08c-38.79,29.98-79.74,57.37-123.48,79.61c-27.87,14.36-57.02,26.06-86.65,36.21
		c-0.99,0.34-1.97,0.68-2.95,1.02c-2.09,0.43-4.3101,1.06-6.4301,0.47c-1.78-1.45-3.05-3.4-4.36-5.26
		c-7.11-10.72-14.37-21.35-21.45-32.08c9.39,2.24,19.12,0.51,28.24-2.07c25.68-7.38,49.8-19.2,73.36-31.61
		c27.84-15.02,54.9-31.7,79.67-51.42c23.93-18.61,47.42-37.8,70.28-57.72c19.87-17.73,39.8199-35.59,56.83-56.16
		C821.08,650.52,828.1,641.06,829.31,629.7z"/>
	<path fill="#04913E" stroke="#04913E" stroke-width="0.0938" d="M790.37,641.03c3.66-0.6,7.54-1.83,11.2-0.58
		c3.54,1.34,4.74,5.66,3.88,9.08c-1.45,6.47-5.63,11.85-9.64,16.96c-0.49-0.88-0.95-1.76-1.39-2.65
		C791.46,656.61,791.64,648.64,790.37,641.03z"/>
	<path fill="#E67817" stroke="#E67817" stroke-width="0.0938" d="M801.12,734.09c9.43-9.06,17.94-18.98,26.44-28.88
		c14.54,13.87,31.29,25.1,47.92,36.28c9.64,6.5,18.77,14.22,24.65,24.41c12.28,20.47,14.63,44.68,21.89,67
		c12.33,37.36,32.11,71.72,53.52,104.53c41.68,62.75,90.67,120.21,140.55,176.5001c74.79,83.7699,153.2201,164.2,228.03,247.96
		c27.45,31.03,54.4,62.54,79.53,95.49c20.86,27.86,40.98,56.61,55.6699,88.29c5.2401,11.5,9.62,23.46,12.15,35.88
		c1.29,6.35,1.37,12.8899,2.67,19.25c0.8199,3.7899,3.0499,8.0299,7.21,8.86c6.37,1.0399,12.12-2.77,17.17-6.16
		c12.23-8.92,22.38-20.3101,32.3099-31.65c19.89-23.51,37.9501-48.5599,54.4701-74.53c7.6899-12.49,15.6599-25.6899,28.49-33.5399
		c4.89-2.92,10.72-6.13,16.5499-3.99c6.9,2.9099,11.51,9.24,15.5701,15.27c9.02,14.1799,14.96,30.0699,19.96,46.0399
		c7.25,24.29,12.24,49.47,12.29,74.89c-0.38,10.92-1.04,22.59-7.0601,32.08c-2.61,4.39-7.38,6.9501-12.3199,7.76
		c-13.8,2.7301-27.28,7.87-38.63,16.3c-8.0701,5.89-15.3301,12.85-23.76,18.23c-13.9301,9.02-30.12,13.75-46.33,16.59
		c-12.77,2.41-25.8601,3.64-38.1901,7.9601c-7.85,2.7-15.34,6.49-22.02,11.4199c10.3101,3.29,21.1801,5.39,30.7101,10.7201
		c-11.65,0.08-23.2301-2.12-34.88-1.6001c7.83,2,15.8999,2.9601,23.6699,5.2101c10.76,3.0499,21.23,7.3099,30.8101,13.11
		c-15.49-2.01-30.6-6.42-46.16-8.0601c-2.26-0.14-4.55-0.1699-6.74,0.3401c5.36,2.25,11.2,2.74,16.8099,4.08
		c7.5,1.72,15,3.66,22.0901,6.74c4.71,2.09,9.7,3.9401,13.48,7.62c-11.9301-0.74-23.53-4.08-35.34-5.86
		c-6.0701-0.76-12.12-2.6901-18.27-1.79c13.75,5.55,29.0499,7.01,42.14,14.23c-3.24,1.3401-6.74,1.4601-10.17,1.1101
		c-14.76-0.3501-29.3101-3.05-44.01-4.27c-52.2-5.4301-104.59-8.86-157.04-10.79c-12.63-0.97-25.3199-0.48-37.95-1.3199
		c-11.67-0.24-23.34-0.3301-35-0.5c-28.87-0.9801-57.8101-0.79-86.65,0.99c-39.91,2.5599-80.1,11.21-115.34,30.73
		c-8.14,4.2999-15.77,9.45-23.42,14.53c-7.89,3.74-16.9,3.71-25.41,4.6599c-22.06,1.67-44.2,1.67-66.29,1.01
		c4.46-0.2,8.92-0.6599,13.4-0.84c-7.91-0.66-15.86-0.9401-23.75,0.12c-12.58,0.03-25.12-1.29-37.63-2.36
		c-23.67-2.4501-47.45-5.63-70.2-12.86c-9.25-3.27-18.95-6.9-25.83-14.1801c-3.55-3.6-5.35-8.99-3.83-13.91
		c5.63-20.58,13.89-40.47,24.9-58.75c16.17-27.0499,40.53-49.0599,69.04-62.48c32.3-15.52,68.49-20.84,104.01-21.9299
		c48.37-1.22,96.52,5.13,144.16,12.88c3.3199,0.48,6.6599,0.75,10.02,1.02c-19.4601-5.28-39.2101-9.7301-58.05-17.03
		c-20.64-7.8201-41.12-18.3201-55.83-35.1901c-11.76-13.0599-18.55-30.25-19.84-47.7c-1.54-13.05,0.21-26.2,2.31-39.0701
		c0.25-1.1399-0.04-2.09-0.85-2.86c-13.23-15.13-27.8-29.3999-45.02-39.95c-15.75-9.79-33.56-15.36-50.56-22.5
		c-35.41-15.62-70.01-33.04-105.47-48.53c-1.23,10.9401-3.65,21.8201-3.44,32.88c1.4,28.47,13.18,54.84,22.25,81.4301
		c-5.8-5.3201-11.82-10.5-18.71-14.37c-2.3-1.25-4.72-2.6001-7.42-2.49c1.25,5.8899,5.08,10.7799,7.87,16.0199
		c3.68,6.7301,8.33,13.03,10.75,20.39c-4.91-2.6-9.95-5.1-15.55-5.7c-1.49,3.36-2.44,6.98-2.44,10.6899
		c-0.08,6.3301-0.49,13.2301,3.03,18.8301c3.72,6.21,9.77,11.5499,10.17,19.25c-4.68-0.4301-9.09-2.0801-13.68-2.91
		c-3.65,47.35-10.21,94.78-24.33,140.26c-6.17,20.34-14.1,40.1801-23.95,59.03c-3.97,7.9399-12.11,12.4399-19.72,16.2899
		c-15.79,7.4801-32.88,11.7301-49.95,15.1001c-19.58,3.5599-39.42,6.47-59.34,6.6899c-11.92-0.91-23.95-1.03-35.86,0.04
		c-12.8,0.21-25.54-1.6801-38.13-3.8401c-16.53-3.2-33.32-7.9399-47.08-18.0299c-8.27-6.05-14.58-15.1801-15.8-25.5
		c-1.3-10.11,2.39-19.8301,5.33-29.29c11.24-34.54,26.53-67.6,43.13-99.85c17.08-33.16,35.73-65.48,53.92-98.03
		c19.25-34.51,38.26-69.3,53.12-105.99c7.89-19.65,14.44-39.9399,18.09-60.84c3.3-19.79,4.27-40.38-0.43-60.03
		c-1.92,1.9301-4.63,3.37-5.4,6.1801c-1.88,5.47-2.07,11.33-2.91,17.0199c-6.65-7.58-7.3-18.0199-8.05-27.59
		c-0.3701-6.88-0.97-13.78-2.71-20.47c-1.8,2.04-4.35,3.72-4.75,6.64c-2.58,11.98-0.28,24.25-0.39,36.36
		c-5.26-9.86-7.14-21.02-9.96-31.72c-2.84-10.7301-4.44-21.88-8.95-32.1001c-3.62,9.26,0.16,18.9,1.86,28.12
		c2.2,11.2401,5.9,22.2101,6.97,33.66c-4.83-6.3199-8.23-13.51-12.27-20.3099c-2.02-3.5601-3.89-7.2001-5.61-10.9
		c-3.48-8.23-8-15.9501-11.72-24.0601C566.69,1149.3,541.28,1059.5,536.67,967.95c-0.73-17.33-0.73-34.7,0.04-52.02
		c0.35-5.09,0.86-10.18,0.78-15.28c1.14-2.2401,2.33-4.44,3.49-6.66c29.63-10.15,58.78-21.85,86.65-36.21
		c43.74-22.2401,84.69-49.63,123.48-79.61C768.51,764.33,785.65,750.08,801.12,734.09 M829.93,1225.9301
		c11.26,7.23,24.58,10.75,35.27,18.9299c-14.59,0.27-29.21-5.65-43.69-1.98c4.75,5.73,11.56,8.97,17.71,12.91
		c7.8,4.89,15.94,9.26,23.58,14.4199c3.99,2.74,8.81,4.9,10.77,9.66c-3.64-0.2-7.26-0.71-10.78-1.61
		c-8.12-2.02-16.47-3.51-24.86-3.29c-4.93,0.14-10.3,1.5601-13.56,5.49c-1.3,2.53,0.39,5.2201,2.29,6.89
		c6.44,5.88,14.9901,8.42,22.59,12.4c-7.72,0.41-16.19-0.83-23.07,3.48c-4.39,2.6901-4.79,8.87-2.48,13.09
		c2.38,5.6801,8.24,8.9,10.66,14.53c-3.99,3.1901-9.27,4.91-12.2,9.3101c-3.14,4.34-3.3199,9.87-3.84,15.01
		c23.64-3.4601,47.55-12.9501,63.6-31.26c8.22-9.54,13.35-21.41,16.5-33.5c1.11-5.3101,2.79-10.67,2.5-16.12
		c-2.63-3.17-5.71-6.03-7.51-9.78c-8.34-15.42-24.3199-24.48-39.98-30.99C845.73,1230.62,838.07,1227.37,829.93,1225.9301
		 M926.67,1347.8199c1.96,6.2201,6.93,10.65,11.22,15.29c10.74,10.4501,22.3,20.1801,35.3,27.7001
		c8.47,5.6,18.12,8.95,26.94,13.8899c-8.77-0.48-17.15-3.4299-25.28-6.5299c-18.17-7.7301-34.77-18.67-50.42-30.61
		c-5.22-3.8701-9.92-8.4601-15.65-11.6001c4.52,7.65,11.36,13.48,17.53,19.74c10.98,10.2101,22.11,20.9,36.15,26.79
		c8.17,4,17.09,5.97,25.57,9.16c-23.27-2.7001-46.34-7.91-68.19-16.4301c-6.81-2.5-13.25-5.86-20.06-8.2999
		c5.23,4.45,11.41,7.49,17.27,10.99c23.55,13.64,48.25,25.48,74.21,33.77c6.71,2.0199,10.31,8.46,14.63,13.4399
		c5.56,6.5699,9.99,14.67,17.96,18.64c3.48-8.36,5.4401-17.22,8.03-25.87c4.28-14.87,9.14-29.96,18.49-42.51
		c6.23-9.11,15.29-15.59,23.71-22.5c-9.5199-0.5-18.1,4.33-25.63,9.6c-4.5199,3.0601-8.36,6.9501-12.0599,10.92
		c-2.71,2.9399-6.2001,5.5499-10.36,5.66c-12.0601,0.7599-23.05-5.3101-33.3101-10.8601c-15.99-9.38-31.06-20.21-46.49-30.46
		C940.03,1353.86,933.9,1349.51,926.67,1347.8199 M1053.72,1430.71c-9.38,13.48-16.49,28.5601-20.5599,44.48
		c-6.3,23.63-6.24,48.4301-3.88,72.6101c17.78,13.9199,36.97,26.1,57.5599,35.4199c36.5801,17.1,76.0701,27.15,115.89,33.13
		c19.6901,2.6901,39.51,5.11,59.41,5.35c-43.55-10.13-87.34-19.2699-130.71-30.21c-7.42-2.12-15.1901-3.46-21.9301-7.38
		c7.99-2.1799,16.3199-2.15,24.5-3.12c13.75-1.22,27.5601-2.1899,41.15-4.75c4.33-0.98,9.0699-1.64,12.5599-4.63
		c0.77-2.97-2.35-4.6-4.4399-5.87c-9.4501-4.84-19.8101-7.52-29.72-11.22c-19.37-6.5-38.8101-12.85-57.89-20.1801
		c-6.38-2.75-13.42-4.88-18.1-10.3199c6.4399-2.9,13.6-1.8,20.45-1.98c18.55-0.01,37.73,0.0299,55.29-6.76
		c6.2999-2.72,12.9299-6.91,15.2999-13.6901c1.52-4.75-2.4299-8.7799-6.1799-10.97c-7.53-4.3-15.99-6.62-24.3401-8.71
		c-9.7999-2.5801-19.96-3.36-29.73-6c7.5601-0.9501,15.26-0.9501,22.67-2.89c9.85-2.35,20.16-6.16,26.6899-14.3101
		c4.1801-5.11,3.89-12.6499,0.7101-18.1799c-3.4601-5.9501-8.64-10.67-13.91-14.99c-4.8-4.02-10.77-6.4701-15.22-10.9
		c-0.01-3.26,3.09-5.16,5.26-7.08c5.7-4.29,11.11-9.4901,13.71-16.29c3.8-9.5701,2.99-20.2001,0.63-30.01
		C1112.48,1376.55,1076.9399,1397.97,1053.72,1430.71z"/>
	<path fill="#02923F" stroke="#02923F" stroke-width="0.0938" d="M523.9,823.91c6.3-7.5099,12.94-14.81,20.43-21.17
		c0.08,14.35,0.44,28.72-0.22,43.05c-7.48,2.84-15.68,4.85-23.7,3.56c-3.48-0.5099-6.61-3.55-6.08-7.25
		C515.09,835.08,519.72,829.31,523.9,823.91z"/>
	<path fill="#71706E" stroke="#71706E" stroke-width="0.0938" d="M527.24,890.22c1.31,1.86,2.58,3.8101,4.36,5.26
		c2.12,0.59,4.34-0.04,6.4301-0.47c-14.16,26.21-26.13,53.79-33.2,82.8c-2.13,8.19-3.29,16.58-5.16,24.83
		c-1.52-0.96-3-1.95-4.54-2.84c-3.37-1.94-7.02-3.32-10.48-5.07c4.05-29.68,12.59-59.16,28.16-84.93
		C516.95,902.79,522.08,896.47,527.24,890.22z"/>
	<path fill="#1F1917" stroke="#1F1917" stroke-width="0.0938" d="M538.03,895.01c0.98-0.34,1.96-0.68,2.95-1.02
		c-1.16,2.22-2.35,4.42-3.49,6.66c-17.07,31.25-29.55,65.24-34.91,100.5099c-0.25,0.91-0.49,1.82-0.72,2.76
		c-0.54-0.32-1.64-0.96-2.19-1.28c1.87-8.25,3.03-16.64,5.16-24.83C511.9,948.8,523.87,921.22,538.03,895.01z"/>
	<path fill="#E3DDAA" stroke="#E3DDAA" stroke-width="0.0938" d="M469.29,996.25c4.82-2.14,10.22-1.99,15.36-1.52
		c3.46,1.75,7.11,3.13,10.48,5.07c6.95,7.37,12.54,16.24,14.97,26.15c3.24,13.12,2.9,27.3201-2.06,39.99
		c-3.4,9.26-9.53,17.9801-18.45,22.6201c-5.46,2.8899-11.83,2.9399-17.85,2.7699c-10.31-4.48-18.23-13.38-22.36-23.74
		c-6.15-15.3199-6.29-33.08-0.32-48.48C452.8,1009.47,459.52,1000.35,469.29,996.25 M454.13,1020.12
		c-5.8,14.4301-5.27,31.01,0.41,45.4c4.03,9.74,10.95,19.53,21.51,22.6899c-1.04-1.39-2.1-2.76-3.16-4.11
		c-10.86-12.98-16.15-30.2899-15.09-47.13c0.41-8.14,2.62-16.2599,6.99-23.18c3.04-5.06,7.76-8.73,11.52-13.2
		C466.08,1002.64,458,1010.66,454.13,1020.12 M482.42,1002.46c-2.93,1.12-5.16,3.46-7.26,5.71c-7.7,8.75-12.17,20.2-13.05,31.78
		c-1,11.4601,2.38,22.9801,8.09,32.8301c3.03,4.7899,6.66,9.86,12.2,11.89c3.35,1.12,6.23-1.7101,8.42-3.8401
		c8.48-9.1499,13.08-21.49,14.02-33.8199c0.7-13.96-3.74-28.35-12.7-39.14C489.64,1005.21,486.4,1001.78,482.42,1002.46z"/>
	<path fill="#C3BD67" stroke="#C3BD67" stroke-width="0.0938" d="M495.13,999.8c1.54,0.89,3.02,1.88,4.54,2.84
		c0.55,0.32,1.65,0.96,2.19,1.28c0.23-0.94,0.47-1.85,0.72-2.76c0.62,2.11,0.55,4.53,2,6.34c11.61,14.31,17.49,33.71,13.92,51.98
		c-1.74,9.89-6.02,19.62-13.53,26.49c-8.65,8.26-22.42,10-33.23,5.36c6.02,0.17,12.39,0.12,17.85-2.7699
		c8.92-4.64,15.05-13.3601,18.45-22.6201c4.96-12.6699,5.3-26.87,2.06-39.99C507.67,1016.04,502.08,1007.17,495.13,999.8z"/>
	<path fill="#C4BE67" stroke="#C4BE67" stroke-width="0.0938" d="M454.13,1020.12c3.87-9.46,11.95-17.48,22.18-19.53
		c-3.76,4.47-8.48,8.14-11.52,13.2c-4.37,6.92-6.58,15.04-6.99,23.18c-1.06,16.8401,4.23,34.15,15.09,47.13
		c1.06,1.35,2.12,2.72,3.16,4.11c-10.56-3.1599-17.48-12.95-21.51-22.6899C448.86,1051.13,448.33,1034.55,454.13,1020.12z"/>
	<path fill="#FFFCC7" stroke="#FFFCC7" stroke-width="0.0938" d="M482.42,1002.46c3.98-0.68,7.22,2.75,9.72,5.41
		c8.96,10.79,13.4,25.1801,12.7,39.14c-0.94,12.33-5.54,24.67-14.02,33.8199c-2.19,2.13-5.07,4.9601-8.42,3.8401
		c-5.54-2.03-9.17-7.1001-12.2-11.89c-5.71-9.85-9.09-21.37-8.09-32.8301c0.88-11.58,5.35-23.03,13.05-31.78
		C477.26,1005.92,479.49,1003.58,482.42,1002.46z"/>
	<path fill="#E67817" stroke="#E67817" stroke-width="0.0938" d="M589.64,1209.62c0.64-1.98,1.36-3.9301,2.13-5.84
		c0.92,1.9,2.02,3.7999,2.55,5.89c1.56,8.47,3.75,16.8199,4.69,25.39c1.97,14.5699,2.74,29.2999,2.78,44
		c-0.83,20.0399-4.32,39.87-8.28,59.5c-10.65,49.58-31.45,98.1599-66.38,135.5499c-11.04,12.7001-25.23,22.0701-36.62,34.41
		c-21.55,23.46-39.59,49.95-55.35,77.5699c-11.52,21.3-22.44,43.51-26.46,67.61c-1.44,10.37-1.57,21.99,4.58,30.99
		c4.5,6.65,12.36,9.4501,19.31,12.76c9.44,4.55,19,8.87,28.39,13.55c7.28,3.78,15.1,6.62,21.64,11.7
		c-4.62,0.1001-9.16-0.76-13.64-1.76c-20.8-3.98-41.45-9.46-60.85-18.09c-9.78-4.5699-19.67-9.88-26.76-18.22
		c-4.09-4.65-6.3-11.1-4.7-17.22c12.2-53.65,36.96-104.42,71.58-147.17c9.7-11.55,20.07-22.73,32.24-31.72
		c5.2-4.04,11.97-5.62,16.63-10.39c6.27-6.01,10.66-13.62,14.76-21.1901c10-19.5,17.16-40.2899,23.99-61.0699
		C555.55,1334.3,570.47,1271.34,589.64,1209.62z"/>
	<path fill="#AF5727" stroke="#AF5727" stroke-width="0.0938" d="M594.32,1209.67c4.22,7.9399,7.75,16.22,11.87,24.21
		c3.7,7.42,7.78,14.65,11.34,22.14c1.72,3.7,3.59,7.34,5.61,10.9c4.04,6.7999,7.44,13.99,12.27,20.3099
		c-1.0699-11.45-4.77-22.4199-6.97-33.66c-1.7-9.22-5.48-18.86-1.86-28.12c4.51,10.2201,6.11,21.37,8.95,32.1001
		c2.8199,10.7,4.7,21.86,9.96,31.72c0.11-12.11-2.19-24.38,0.39-36.36c0.4-2.92,2.95-4.6,4.75-6.64
		c1.74,6.6899,2.34,13.59,2.71,20.47c0.75,9.5701,1.4,20.01,8.05,27.59c0.84-5.6899,1.03-11.5499,2.91-17.0199
		c0.77-2.8101,3.48-4.25,5.4-6.1801c4.7,19.65,3.73,40.24,0.43,60.03c-3.65,20.9-10.2,41.1899-18.09,60.84
		c-14.86,36.6899-33.87,71.48-53.12,105.99c-18.19,32.55-36.84,64.87-53.92,98.03c-16.6,32.25-31.89,65.3099-43.13,99.85
		c-2.94,9.46-6.63,19.1801-5.33,29.29c-4.59-1.0801-9.53-0.7201-13.92-2.4601c-6.54-5.08-14.36-7.9199-21.64-11.7
		c-9.39-4.6801-18.95-9-28.39-13.55c-6.95-3.3099-14.81-6.11-19.31-12.76c-6.15-9-6.02-20.62-4.58-30.99
		c4.02-24.1,14.94-46.3099,26.46-67.61c15.76-27.62,33.8-54.11,55.35-77.5699c11.39-12.34,25.58-21.71,36.62-34.41
		c34.93-37.39,55.73-85.97,66.38-135.5499c3.96-19.63,7.45-39.4601,8.28-59.5c-0.04-14.7001-0.81-29.4301-2.78-44
		C598.07,1226.49,595.88,1218.14,594.32,1209.67z"/>
	<path fill="#AF5727" stroke="#AF5727" stroke-width="0.0938" d="M829.93,1225.9301c8.14,1.4399,15.8,4.6899,23.5,7.59
		c15.66,6.51,31.64,15.5699,39.98,30.99c1.8,3.75,4.88,6.61,7.51,9.78c0.29,5.45-1.39,10.8099-2.5,16.12
		c-3.15,12.09-8.28,23.96-16.5,33.5c-16.05,18.3099-39.96,27.7999-63.6,31.26c0.52-5.14,0.7-10.67,3.84-15.01
		c2.9301-4.4,8.21-6.12,12.2-9.3101c-2.42-5.63-8.28-8.85-10.66-14.53c-2.31-4.22-1.91-10.3999,2.48-13.09
		c6.88-4.3099,15.35-3.0699,23.07-3.48c-7.6-3.98-16.15-6.52-22.59-12.4c-1.9-1.6699-3.59-4.36-2.29-6.89
		c3.26-3.9299,8.63-5.35,13.56-5.49c8.39-0.22,16.74,1.27,24.86,3.29c3.52,0.9,7.14,1.41,10.78,1.61
		c-1.96-4.76-6.78-6.92-10.77-9.66c-7.64-5.1599-15.78-9.5299-23.58-14.4199c-6.15-3.9401-12.96-7.1801-17.71-12.91
		c14.48-3.67,29.1,2.25,43.69,1.98C854.51,1236.6801,841.19,1233.16,829.93,1225.9301z"/>
	<path fill="#AF5727" stroke="#AF5727" stroke-width="0.0938" d="M926.67,1347.8199c7.23,1.6901,13.36,6.04,19.56,9.92
		c15.43,10.25,30.5,21.08,46.49,30.46c10.26,5.55,21.25,11.62,33.3101,10.8601c4.1599-0.1101,7.65-2.7201,10.36-5.66
		c3.7-3.97,7.54-7.86,12.0599-10.92c7.53-5.27,16.1101-10.1,25.63-9.6c-8.4199,6.91-17.48,13.39-23.71,22.5
		c-9.35,12.55-14.21,27.64-18.49,42.51c-2.59,8.65-4.55,17.51-8.03,25.87c-7.97-3.97-12.4-12.0701-17.96-18.64
		c-4.32-4.98-7.92-11.42-14.63-13.4399c-25.96-8.29-50.66-20.13-74.21-33.77c-5.86-3.5-12.04-6.54-17.27-10.99
		c6.81,2.4399,13.25,5.7999,20.06,8.2999c21.85,8.52,44.92,13.73,68.19,16.4301c-8.48-3.1901-17.4-5.16-25.57-9.16
		c-14.04-5.89-25.17-16.58-36.15-26.79c-6.17-6.26-13.01-12.09-17.53-19.74c5.73,3.14,10.43,7.73,15.65,11.6001
		c15.65,11.9399,32.25,22.8799,50.42,30.61c8.13,3.1,16.51,6.0499,25.28,6.5299c-8.82-4.9399-18.47-8.2899-26.94-13.8899
		c-13-7.52-24.56-17.25-35.3-27.7001C933.6,1358.47,928.63,1354.04,926.67,1347.8199z"/>
	<path fill="#AF5727" stroke="#AF5727" stroke-width="0.0938" d="M1053.72,1430.71c23.22-32.74,58.76-54.1599,95.17-69.45
		c2.36,9.8099,3.17,20.4399-0.63,30.01c-2.6,6.7999-8.01,12-13.71,16.29c-2.17,1.9199-5.27,3.8199-5.26,7.08
		c4.45,4.4299,10.4199,6.88,15.22,10.9c5.27,4.3199,10.45,9.0399,13.91,14.99c3.1799,5.53,3.47,13.0699-0.7101,18.1799
		c-6.5299,8.15-16.84,11.9601-26.6899,14.3101c-7.41,1.9399-15.11,1.9399-22.67,2.89c9.77,2.64,19.9301,3.4199,29.73,6
		c8.3501,2.09,16.8101,4.4099,24.3401,8.71c3.75,2.1901,7.7,6.22,6.1799,10.97c-2.37,6.78-9,10.9701-15.2999,13.6901
		c-17.5601,6.7899-36.74,6.75-55.29,6.76c-6.85,0.1799-14.01-0.92-20.45,1.98c4.6799,5.4399,11.72,7.5699,18.1,10.3199
		c19.08,7.3301,38.52,13.6801,57.89,20.1801c9.9099,3.7,20.2699,6.38,29.72,11.22c2.09,1.27,5.21,2.9,4.4399,5.87
		c-3.49,2.99-8.23,3.65-12.5599,4.63c-13.59,2.5601-27.4,3.53-41.15,4.75c-8.1801,0.97-16.51,0.9401-24.5,3.12
		c6.74,3.92,14.51,5.26,21.9301,7.38c43.37,10.9401,87.1599,20.08,130.71,30.21c-19.9-0.24-39.72-2.6599-59.41-5.35
		c-39.8199-5.98-79.3099-16.03-115.89-33.13c-20.59-9.3199-39.7799-21.5-57.5599-35.4199c-2.36-24.1801-2.42-48.9801,3.88-72.6101
		C1037.23,1459.27,1044.34,1444.1899,1053.72,1430.71z"/>
	<path fill="#AF5727" stroke="#AF5727" stroke-width="0.0938" d="M1037.3,1561.71c14.71,16.87,35.1899,27.37,55.83,35.1901
		c18.84,7.2999,38.59,11.75,58.05,17.03c-3.3601-0.27-6.7001-0.54-10.02-1.02c-47.64-7.75-95.79-14.1-144.16-12.88
		c-35.52,1.09-71.71,6.4099-104.01,21.9299c-28.51,13.42-52.87,35.4301-69.04,62.48c-1.94-1.2599-5.49-1.9099-5.68-4.5699
		c4.48-30.29,21.57-58.21,45.84-76.75c30.32-23.48,68.45-34.11,106-38.63c17.22-1.92,34.56-2.74,51.89-2.49
		C1027.09,1561.92,1032.27,1562.95,1037.3,1561.71z"/>
	<path fill="#C27B38" stroke="#C27B38" stroke-width="0.0938" d="M597.55,1772.53c11.91-1.0701,23.94-0.9501,35.86-0.04
		c-7.09,1.13-14.27,0.73-21.4,0.8101C607.17,1773.34,602.32,1773.33,597.55,1772.53z"/>
	<path fill="#C57836" stroke="#C57836" stroke-width="0.0938" d="M936.54,1786.5c7.89-1.0601,15.84-0.78,23.75-0.12
		c-4.48,0.1801-8.94,0.64-13.4,0.84C943.42,1787.34,939.96,1786.95,936.54,1786.5z"/>
</g>
</svg>
